<svg width="592" height="278" viewBox="0 0 592 278" fill="none" xmlns="http://www.w3.org/2000/svg">
<rect width="592" height="278" rx="8" fill="#DFE7EC"/>
<rect x="258" y="107" width="77" height="65" rx="5.35714" fill="white"/>
<path fill-rule="evenodd" clip-rule="evenodd" d="M330.471 107H262.529C260.028 107 258 109.079 258 111.643V167.357C258 169.921 260.028 172 262.529 172H330.471C332.972 172 335 169.921 335 167.357V111.643C335 109.079 332.972 107 330.471 107ZM262.529 167.357V111.643H330.471V167.357H262.529Z" fill="#C2D1D9"/>
<path fill-rule="evenodd" clip-rule="evenodd" d="M270.456 126.152C270.456 130.96 274.258 134.857 278.949 134.857C283.639 134.857 287.441 130.96 287.441 126.152C287.441 121.344 283.639 117.446 278.949 117.446C274.258 117.446 270.456 121.344 270.456 126.152ZM282.912 126.152C282.912 128.395 281.137 130.214 278.949 130.214C276.76 130.214 274.985 128.395 274.985 126.152C274.985 123.908 276.76 122.089 278.949 122.089C281.137 122.089 282.912 123.908 282.912 126.152Z" fill="#C2D1D9"/>
<path d="M274.315 162.041C273.427 162.944 271.993 162.938 271.112 162.027C270.232 161.117 270.238 159.647 271.126 158.744L289.753 139.816L300.251 149.176C301.195 150.017 301.294 151.484 300.473 152.451C299.653 153.418 298.222 153.52 297.278 152.679L289.954 146.149L274.315 162.041Z" fill="#C2D1D9"/>
<path d="M291.307 162.034C290.423 162.941 288.989 162.941 288.105 162.034C287.22 161.128 287.22 159.658 288.104 158.751L317.911 128.196L334.229 142.872C335.169 143.718 335.263 145.184 334.438 146.148C333.613 147.112 332.182 147.208 331.242 146.362L318.113 134.554L291.307 162.034Z" fill="#C2D1D9"/>
</svg>
