<svg width="592" height="512" viewBox="0 0 592 512" fill="none" xmlns="http://www.w3.org/2000/svg">
<rect width="592" height="512" rx="8" fill="#DFE7EC"/>
<rect x="258" y="224" width="77" height="65" rx="5.35714" fill="white"/>
<path fill-rule="evenodd" clip-rule="evenodd" d="M330.471 224H262.529C260.028 224 258 226.079 258 228.643V284.357C258 286.921 260.028 289 262.529 289H330.471C332.972 289 335 286.921 335 284.357V228.643C335 226.079 332.972 224 330.471 224ZM262.529 284.357V228.643H330.471V284.357H262.529Z" fill="#C2D1D9"/>
<path fill-rule="evenodd" clip-rule="evenodd" d="M270.456 243.152C270.456 247.96 274.258 251.857 278.949 251.857C283.639 251.857 287.441 247.96 287.441 243.152C287.441 238.344 283.639 234.447 278.949 234.447C274.258 234.447 270.456 238.344 270.456 243.152ZM282.912 243.152C282.912 245.395 281.137 247.214 278.949 247.214C276.76 247.214 274.985 245.395 274.985 243.152C274.985 240.908 276.76 239.089 278.949 239.089C281.137 239.089 282.912 240.908 282.912 243.152Z" fill="#C2D1D9"/>
<path d="M274.315 279.041C273.427 279.944 271.993 279.938 271.112 279.027C270.232 278.117 270.238 276.647 271.126 275.744L289.753 256.816L300.251 266.176C301.195 267.017 301.294 268.484 300.473 269.451C299.653 270.418 298.222 270.52 297.278 269.679L289.954 263.149L274.315 279.041Z" fill="#C2D1D9"/>
<path d="M291.307 279.034C290.423 279.941 288.989 279.941 288.105 279.035C287.22 278.128 287.22 276.658 288.104 275.752L317.911 245.196L334.229 259.872C335.169 260.718 335.263 262.185 334.438 263.148C333.613 264.112 332.182 264.208 331.242 263.362L318.113 251.555L291.307 279.034Z" fill="#C2D1D9"/>
</svg>
